<mxfile host="app.diagrams.net" modified="2023-01-29T23:16:31.348Z" agent="5.0 (Windows NT 10.0; Win64; x64) AppleWebKit/537.36 (KHTML, like Gecko) Chrome/109.0.0.0 Safari/537.36" etag="BsFhnSqPniO2uw1rWkV8" version="20.8.10" type="github">
  <diagram name="Pagina-1" id="U1nbY8wSfZqs5nlGonqW">
    <mxGraphModel dx="2901" dy="1148" grid="1" gridSize="10" guides="1" tooltips="1" connect="1" arrows="1" fold="1" page="1" pageScale="1" pageWidth="827" pageHeight="1169" math="0" shadow="0">
      <root>
        <mxCell id="0" />
        <mxCell id="1" parent="0" />
        <mxCell id="8ekp9atwejZzw8iufc5K-8" value="DEVICE SET" style="ellipse;whiteSpace=wrap;html=1;aspect=fixed;fontSize=22;fontStyle=1" vertex="1" parent="1">
          <mxGeometry x="-250" y="400" width="480" height="480" as="geometry" />
        </mxCell>
        <mxCell id="8ekp9atwejZzw8iufc5K-19" value="" style="ellipse;whiteSpace=wrap;html=1;fontSize=22;fillColor=#6a00ff;rotation=15;fontColor=#ffffff;strokeColor=#3700CC;opacity=40;" vertex="1" parent="1">
          <mxGeometry x="40" y="570" width="520" height="170" as="geometry" />
        </mxCell>
        <mxCell id="8ekp9atwejZzw8iufc5K-18" value="" style="ellipse;whiteSpace=wrap;html=1;rotation=-15;fillColor=#a20025;strokeColor=#6F0000;fontColor=#ffffff;opacity=60;" vertex="1" parent="1">
          <mxGeometry x="-169.1" y="316.78" width="779.46" height="200" as="geometry" />
        </mxCell>
        <mxCell id="8ekp9atwejZzw8iufc5K-1" value="acy_experiments" style="rounded=1;whiteSpace=wrap;html=1;fontStyle=1;fillColor=#e3c800;fontColor=#000000;strokeColor=#B09500;" vertex="1" parent="1">
          <mxGeometry x="760" y="250" width="120" height="60" as="geometry" />
        </mxCell>
        <mxCell id="8ekp9atwejZzw8iufc5K-2" value="acy_admin" style="rounded=1;whiteSpace=wrap;html=1;fontStyle=1;fillColor=#a0522d;fontColor=#ffffff;strokeColor=#6D1F00;" vertex="1" parent="1">
          <mxGeometry x="760" y="320" width="120" height="60" as="geometry" />
        </mxCell>
        <mxCell id="8ekp9atwejZzw8iufc5K-3" value="acy_sport" style="rounded=1;whiteSpace=wrap;html=1;fontStyle=1;fillColor=#d5e8d4;strokeColor=#82b366;fontSize=18;" vertex="1" parent="1">
          <mxGeometry x="490.36" y="750" width="120" height="60" as="geometry" />
        </mxCell>
        <mxCell id="8ekp9atwejZzw8iufc5K-4" value="acy_clinic" style="rounded=1;whiteSpace=wrap;html=1;fontStyle=1;fillColor=#e1d5e7;strokeColor=#9673a6;fontSize=17;" vertex="1" parent="1">
          <mxGeometry x="500" y="330" width="120" height="60" as="geometry" />
        </mxCell>
        <mxCell id="8ekp9atwejZzw8iufc5K-5" value="acy_soldier" style="rounded=1;whiteSpace=wrap;html=1;fontStyle=1;fillColor=#f8cecc;strokeColor=#b85450;fontSize=18;" vertex="1" parent="1">
          <mxGeometry x="500" y="256.78" width="120" height="60" as="geometry" />
        </mxCell>
        <mxCell id="8ekp9atwejZzw8iufc5K-6" value="acy_work" style="rounded=1;whiteSpace=wrap;html=1;fontStyle=1;fillColor=#dae8fc;strokeColor=#6c8ebf;fontSize=18;" vertex="1" parent="1">
          <mxGeometry x="490.36" y="680" width="120" height="60" as="geometry" />
        </mxCell>
        <mxCell id="8ekp9atwejZzw8iufc5K-9" value="" style="sketch=0;pointerEvents=1;shadow=0;dashed=0;html=1;aspect=fixed;labelPosition=center;verticalLabelPosition=bottom;verticalAlign=top;align=center;outlineConnect=0;shape=mxgraph.vvd.cpu;" vertex="1" parent="1">
          <mxGeometry x="-50" y="430" width="50" height="50" as="geometry" />
        </mxCell>
        <mxCell id="8ekp9atwejZzw8iufc5K-10" value="" style="sketch=0;pointerEvents=1;shadow=0;dashed=0;html=1;aspect=fixed;labelPosition=center;verticalLabelPosition=bottom;verticalAlign=top;align=center;outlineConnect=0;shape=mxgraph.vvd.cpu;" vertex="1" parent="1">
          <mxGeometry x="-110" y="460" width="50" height="50" as="geometry" />
        </mxCell>
        <mxCell id="8ekp9atwejZzw8iufc5K-11" value="" style="sketch=0;pointerEvents=1;shadow=0;dashed=0;html=1;aspect=fixed;labelPosition=center;verticalLabelPosition=bottom;verticalAlign=top;align=center;outlineConnect=0;shape=mxgraph.vvd.cpu;" vertex="1" parent="1">
          <mxGeometry x="30" y="430" width="50" height="50" as="geometry" />
        </mxCell>
        <mxCell id="8ekp9atwejZzw8iufc5K-12" value="" style="sketch=0;pointerEvents=1;shadow=0;dashed=0;html=1;aspect=fixed;labelPosition=center;verticalLabelPosition=bottom;verticalAlign=top;align=center;outlineConnect=0;shape=mxgraph.vvd.cpu;" vertex="1" parent="1">
          <mxGeometry y="500" width="50" height="50" as="geometry" />
        </mxCell>
        <mxCell id="8ekp9atwejZzw8iufc5K-13" value="" style="sketch=0;pointerEvents=1;shadow=0;dashed=0;html=1;strokeColor=none;fillColor=#434445;aspect=fixed;labelPosition=center;verticalLabelPosition=bottom;verticalAlign=top;align=center;outlineConnect=0;shape=mxgraph.vvd.cpu;" vertex="1" parent="1">
          <mxGeometry x="170" y="560" width="50" height="50" as="geometry" />
        </mxCell>
        <mxCell id="8ekp9atwejZzw8iufc5K-14" value="" style="sketch=0;pointerEvents=1;shadow=0;dashed=0;html=1;strokeColor=none;fillColor=#434445;aspect=fixed;labelPosition=center;verticalLabelPosition=bottom;verticalAlign=top;align=center;outlineConnect=0;shape=mxgraph.vvd.cpu;" vertex="1" parent="1">
          <mxGeometry x="140" y="640" width="50" height="50" as="geometry" />
        </mxCell>
        <mxCell id="8ekp9atwejZzw8iufc5K-15" value="" style="sketch=0;pointerEvents=1;shadow=0;dashed=0;html=1;strokeColor=none;fillColor=#434445;aspect=fixed;labelPosition=center;verticalLabelPosition=bottom;verticalAlign=top;align=center;outlineConnect=0;shape=mxgraph.vvd.cpu;" vertex="1" parent="1">
          <mxGeometry x="110" y="580" width="50" height="50" as="geometry" />
        </mxCell>
        <mxCell id="8ekp9atwejZzw8iufc5K-16" value="PROJ 1" style="rounded=1;whiteSpace=wrap;html=1;" vertex="1" parent="1">
          <mxGeometry x="160" y="370" width="120" height="60" as="geometry" />
        </mxCell>
        <mxCell id="8ekp9atwejZzw8iufc5K-17" value="PROJ 2" style="rounded=1;whiteSpace=wrap;html=1;" vertex="1" parent="1">
          <mxGeometry x="260" y="625" width="120" height="60" as="geometry" />
        </mxCell>
        <mxCell id="8ekp9atwejZzw8iufc5K-20" value="" style="shape=flexArrow;endArrow=classic;html=1;rounded=0;fontSize=18;exitX=0;exitY=0.25;exitDx=0;exitDy=0;" edge="1" parent="1" source="8ekp9atwejZzw8iufc5K-7">
          <mxGeometry width="50" height="50" relative="1" as="geometry">
            <mxPoint x="830" y="610" as="sourcePoint" />
            <mxPoint x="630" y="390" as="targetPoint" />
          </mxGeometry>
        </mxCell>
        <mxCell id="8ekp9atwejZzw8iufc5K-21" value="" style="shape=flexArrow;endArrow=classic;html=1;rounded=0;fontSize=18;exitX=0.25;exitY=0;exitDx=0;exitDy=0;" edge="1" parent="1" source="8ekp9atwejZzw8iufc5K-7">
          <mxGeometry width="50" height="50" relative="1" as="geometry">
            <mxPoint x="760" y="440" as="sourcePoint" />
            <mxPoint x="630" y="313.22" as="targetPoint" />
          </mxGeometry>
        </mxCell>
        <mxCell id="8ekp9atwejZzw8iufc5K-22" value="" style="shape=flexArrow;endArrow=classic;html=1;rounded=0;fontSize=18;exitX=0;exitY=0.75;exitDx=0;exitDy=0;" edge="1" parent="1" source="8ekp9atwejZzw8iufc5K-7">
          <mxGeometry width="50" height="50" relative="1" as="geometry">
            <mxPoint x="770" y="526.78" as="sourcePoint" />
            <mxPoint x="620" y="670" as="targetPoint" />
          </mxGeometry>
        </mxCell>
        <mxCell id="8ekp9atwejZzw8iufc5K-23" value="" style="shape=flexArrow;endArrow=classic;html=1;rounded=0;fontSize=18;exitX=0.25;exitY=1;exitDx=0;exitDy=0;" edge="1" parent="1" source="8ekp9atwejZzw8iufc5K-7">
          <mxGeometry width="50" height="50" relative="1" as="geometry">
            <mxPoint x="770" y="571.78" as="sourcePoint" />
            <mxPoint x="630" y="770" as="targetPoint" />
          </mxGeometry>
        </mxCell>
        <mxCell id="8ekp9atwejZzw8iufc5K-24" value="https://smartbi.accyourate.com" style="text;html=1;align=center;verticalAlign=middle;resizable=0;points=[];autosize=1;strokeColor=none;fillColor=none;fontSize=18;" vertex="1" parent="1">
          <mxGeometry x="910" y="526.78" width="270" height="40" as="geometry" />
        </mxCell>
        <mxCell id="8ekp9atwejZzw8iufc5K-7" value="acy_main" style="rounded=1;whiteSpace=wrap;html=1;fontStyle=1;fontSize=18;fillColor=#e51400;fontColor=#ffffff;strokeColor=#B20000;" vertex="1" parent="1">
          <mxGeometry x="760" y="516.78" width="120" height="60" as="geometry" />
        </mxCell>
      </root>
    </mxGraphModel>
  </diagram>
</mxfile>
